<?xml version="1.0" encoding="utf-8"?>
<!-- Generator: Adobe Illustrator 22.0.1, SVG Export Plug-In . SVG Version: 6.00 Build 0)  -->
<svg version="1.1" id="Layer_1" xmlns="http://www.w3.org/2000/svg" xmlns:xlink="http://www.w3.org/1999/xlink" x="0px" y="0px"
	 viewBox="0 0 1440 1163.7" style="enable-background:new 0 0 1440 1163.7;" xml:space="preserve">
<style type="text/css">
	.st0{fill:#00AEEF;}
</style>
<path class="st0" d="M610.3,373.7c-34-12.2-66.2-28.8-84.6-43.4c-12.9-10.2-38-34.1-61.4-77.3c-27.7-51.2-83.4-82.1-163.1-82.1H20.7
	V20.3h280.6c142.4,0,239.1,56,270.5,134.4c10.2,25.3,22.7,39.8,36,54.5c22.1,24.5,40.3,28.9,57.1,37.8L610.3,373.7z"/>
<path class="st0" d="M610.3,783.6c-34,12.2-66.2,28.8-84.6,43.4c-12.9,10.2-38,34.1-61.4,77.3c-27.7,51.2-83.4,82.1-163.1,82.1H20.7
	v150.7h280.6c142.4,0,239.1-56,270.5-134.4c10.2-25.3,22.7-39.8,36-54.5c22.1-24.5,40.3-28.9,57.1-37.8L610.3,783.6z"/>
<path class="st0" d="M1420,1136.7h-280.5c-142.4,0-248.8-65.4-292-179.4c-8.9-23.6-17.3-47.6-25.5-71.2
	c-26.3-75.6-51-147-87.6-178.7c-39-33.8-104.7-53.2-180.3-53.2h-75.3V503.6l75.3-0.3c75.5,0,141.2-19.4,180.3-53.2
	C771,418.3,795.7,347,822,271.4c8.2-23.7,16.5-47.6,25.5-71.2c43.1-114,149.6-179.4,292-179.4H1420v150.7h-280.5
	c-79.6,0-130.5,27.6-151.1,82.1c-8.5,22.3-16.3,45-24.1,67.3c-31.6,91-64.3,185-131.3,243.1c-5.9,5.1-12.1,10.1-18.6,14.8
	c6.4,4.7,12.6,9.7,18.6,14.8c67,58.1,99.7,152.1,131.3,243.1c7.8,22.4,15.6,45,24.1,67.3c20.6,54.5,71.4,82.1,151.1,82.1H1420
	V1136.7z"/>
</svg>
